# xmcd
#
# Track frame offsets: 
#        183
#        20455
#        44948
#        76235
#        91813
#        120583
#        149638
#        166933
#
# Disc length: 2633 seconds
#
# Revision: 0
# Processed by: cddbd v1.4PL0 Copyright (c) Steve Scherf et al.
# Submitted via: ExactAudioCopy v0.90b4
#
DISCID=660a4708
DTITLE=123 - 123
DYEAR=1900
DGENRE=A Cappella
TTITLE0=1
TTITLE1=2
TTITLE2=3
TTITLE3=4
TTITLE4=5
TTITLE5=6
TTITLE6=7
TTITLE7=8
EXTD=
EXTT0=
EXTT1=
EXTT2=
EXTT3=
EXTT4=
EXTT5=
EXTT6=
EXTT7=
PLAYORDER=
